<?xml version="1.0" encoding="UTF-8" standalone="no"?>
<!-- Created with Inkscape (http://www.inkscape.org/) -->

<svg
   width="210.00026mm"
   height="192.04482mm"
   viewBox="0 0 210.00026 192.04482"
   version="1.1"
   id="svg5"
   xmlns:xlink="http://www.w3.org/1999/xlink"
   xmlns="http://www.w3.org/2000/svg"
   xmlns:svg="http://www.w3.org/2000/svg">
  <defs
     id="defs2">
    <linearGradient
       id="linearGradient5720">
      <stop
         style="stop-color:#000000;stop-opacity:1;"
         offset="0"
         id="stop5718" />
    </linearGradient>
    <linearGradient
       id="Alice_Blue">
      <stop
         style="stop-color:#ebf2fa;stop-opacity:1;"
         offset="0"
         id="stop4870" />
    </linearGradient>
    <linearGradient
       id="Steel_Blue">
      <stop
         style="stop-color:#427aa1;stop-opacity:1;"
         offset="0"
         id="stop4817" />
    </linearGradient>
    <linearGradient
       id="Blue_Sapphire">
      <stop
         style="stop-color:#05668d;stop-opacity:1;"
         offset="0"
         id="stop3334" />
    </linearGradient>
    <linearGradient
       id="Maximum_Green">
      <stop
         style="stop-color:#679436;stop-opacity:1;"
         offset="0"
         id="stop3328" />
    </linearGradient>
    <linearGradient
       id="Acid_Green">
      <stop
         style="stop-color:#a5be00;stop-opacity:1;"
         offset="0"
         id="stop3322" />
    </linearGradient>
    <linearGradient
       xlink:href="#Blue_Sapphire"
       id="linearGradient5724"
       gradientUnits="userSpaceOnUse"
       x1="-0.00012542307"
       y1="96.0224"
       x2="210.00014"
       y2="96.0224" />
    <linearGradient
       xlink:href="#Blue_Sapphire"
       id="linearGradient13256"
       gradientUnits="userSpaceOnUse"
       x1="-0.00012542307"
       y1="96.0224"
       x2="210.00014"
       y2="96.0224" />
    <linearGradient
       xlink:href="#Blue_Sapphire"
       id="linearGradient13258"
       gradientUnits="userSpaceOnUse"
       x1="-0.00012542307"
       y1="96.0224"
       x2="210.00014"
       y2="96.0224" />
    <linearGradient
       xlink:href="#Blue_Sapphire"
       id="linearGradient13260"
       gradientUnits="userSpaceOnUse"
       x1="-0.00012542307"
       y1="96.0224"
       x2="210.00014"
       y2="96.0224" />
    <linearGradient
       xlink:href="#Blue_Sapphire"
       id="linearGradient13262"
       gradientUnits="userSpaceOnUse"
       x1="-0.00012542307"
       y1="96.0224"
       x2="210.00014"
       y2="96.0224" />
    <linearGradient
       xlink:href="#Blue_Sapphire"
       id="linearGradient13264"
       gradientUnits="userSpaceOnUse"
       x1="-0.00012542307"
       y1="96.0224"
       x2="210.00014"
       y2="96.0224" />
    <linearGradient
       xlink:href="#Blue_Sapphire"
       id="linearGradient13266"
       gradientUnits="userSpaceOnUse"
       x1="-0.00012542307"
       y1="96.0224"
       x2="210.00014"
       y2="96.0224" />
    <linearGradient
       xlink:href="#Blue_Sapphire"
       id="linearGradient13268"
       gradientUnits="userSpaceOnUse"
       x1="-0.00012542307"
       y1="96.0224"
       x2="210.00014"
       y2="96.0224" />
    <linearGradient
       xlink:href="#Blue_Sapphire"
       id="linearGradient13270"
       gradientUnits="userSpaceOnUse"
       x1="-0.00012542307"
       y1="96.0224"
       x2="210.00014"
       y2="96.0224" />
    <linearGradient
       xlink:href="#Blue_Sapphire"
       id="linearGradient13272"
       gradientUnits="userSpaceOnUse"
       x1="-0.00012542307"
       y1="96.0224"
       x2="210.00014"
       y2="96.0224" />
    <linearGradient
       xlink:href="#Blue_Sapphire"
       id="linearGradient13274"
       gradientUnits="userSpaceOnUse"
       x1="-0.00012542307"
       y1="96.0224"
       x2="210.00014"
       y2="96.0224" />
    <linearGradient
       xlink:href="#Blue_Sapphire"
       id="linearGradient13276"
       gradientUnits="userSpaceOnUse"
       x1="-0.00012542307"
       y1="96.0224"
       x2="210.00014"
       y2="96.0224" />
    <linearGradient
       xlink:href="#Blue_Sapphire"
       id="linearGradient13278"
       gradientUnits="userSpaceOnUse"
       x1="-0.00012542307"
       y1="96.0224"
       x2="210.00014"
       y2="96.0224" />
  </defs>
  <g
     id="layer1"
     transform="translate(1.2542308e-4)">
    <g
       id="g5716"
       style="fill:url(#linearGradient5724);fill-opacity:1">
      <path
         id="path2039"
         style="font-size:173.017px;font-family:Bahnschrift;-inkscape-font-specification:'Bahnschrift, Normal';fill:url(#linearGradient13256);fill-opacity:1;stroke-width:1.5641"
         d="M 58.978092,1.650356 2.4260272e-6,161.63884 H 24.207497 L 36.266823,126.53777 H 95.248951 L 87.913204,105.19148 H 43.600551 L 68.550438,32.569666 93.500999,105.19148 h -0.01146 l 7.335751,21.34629 h 0.009 l 12.05933,35.10107 H 137.1011 L 78.123457,1.650356 Z" />
      <path
         id="path2041"
         style="font-size:173.017px;font-family:Bahnschrift;-inkscape-font-specification:'Bahnschrift, Normal';fill:url(#linearGradient13258);fill-opacity:1;stroke-width:1.56426;stroke-dasharray:none"
         d="M 153.77272,-1.8990672e-6 C 142.62269,-1.8990672e-6 132.7929,2.4572771 124.28368,7.3720916 115.77445,12.21355 109.17277,19.10874 104.47804,28.058105 c -2.45542,4.71595 -4.25189,9.839851 -5.402709,15.363407 L 120.54278,101.65452 V 58.207428 c 0,-7.188834 1.35721,-13.497644 4.07138,-18.925945 2.78749,-5.501659 6.67538,-9.719427 11.66356,-12.653644 5.06151,-3.007573 10.89301,-4.511562 17.495,-4.511562 6.602,0 12.39714,1.503989 17.3853,4.511562 5.06153,2.934217 8.94941,7.151985 11.66356,12.653644 2.78752,5.428301 4.18109,11.737111 4.18109,18.925945 v 46.874342 c 0,7.18884 -1.39357,13.534 -4.18109,19.03566 -2.71415,5.4283 -6.60203,9.64607 -11.66356,12.65364 -4.98816,2.93423 -10.7833,4.40118 -17.3853,4.40118 -6.60199,0 -12.43349,-1.46695 -17.495,-4.40118 -1.34051,-0.80824 -2.59904,-1.7065 -3.78062,-2.68957 l 10.46147,28.37714 c 3.45612,0.54931 7.05841,0.83057 10.81415,0.83057 11.15003,0 20.97982,-2.42093 29.48905,-7.26239 8.50922,-4.91482 15.07453,-11.81001 19.69593,-20.68601 C 207.65245,126.39144 210,116.04798 210,104.31112 V 58.977415 c 0,-11.73687 -2.34755,-22.043302 -7.0423,-30.91931 C 198.3363,19.10874 191.77099,12.21355 183.26177,7.3720916 174.75254,2.4572771 164.92275,-1.8990672e-6 153.77272,-1.8990672e-6 Z" />
      <path
         d="m 9.5034319,165.99867 h 3.0851101 l 9.503557,25.78017 h -3.900714 l -7.145398,-20.7979 -7.1453986,20.7979 H -1.2542307e-4 Z M 4.3793124,182.68308 H 17.943158 v 3.43972 H 4.3793124 Z"
         id="path5651"
         style="font-size:36.3121px;font-family:Bahnschrift;-inkscape-font-specification:'Bahnschrift, Normal';fill:url(#linearGradient13260);fill-opacity:1;stroke-width:1.14405" />
      <path
         d="m 33.262325,192.0448 q -2.854614,0 -4.893623,-1.11703 -2.021279,-1.13475 -3.08511,-3.28014 -1.063831,-2.16312 -1.063831,-5.19504 v -16.45392 h 3.617025 v 16.57803 q 0,2.81915 1.418442,4.36171 1.418441,1.54255 4.007097,1.54255 2.606386,0 4.024827,-1.54255 1.436172,-1.54256 1.436172,-4.36171 v -16.57803 h 3.617025 v 16.45392 q 0,3.03192 -1.063831,5.19504 -1.063831,2.14539 -3.10284,3.28014 -2.03901,1.11703 -4.911353,1.11703 z"
         id="path5653"
         style="font-size:36.3121px;font-family:Bahnschrift;-inkscape-font-specification:'Bahnschrift, Normal';fill:url(#linearGradient13262);fill-opacity:1;stroke-width:1.14405" />
      <path
         d="m 52.109864,168.1086 h 3.617025 v 23.67024 h -3.617025 z m -7.287243,-2.10993 h 18.191511 v 3.43972 H 44.822621 Z"
         id="path5655"
         style="font-size:36.3121px;font-family:Bahnschrift;-inkscape-font-specification:'Bahnschrift, Normal';fill:url(#linearGradient13264);fill-opacity:1;stroke-width:1.14405" />
      <path
         d="m 74.379392,192.0448 q -2.695039,0 -4.751779,-1.17022 -2.05674,-1.18794 -3.191493,-3.33333 -1.117023,-2.16313 -1.117023,-5.00001 v -7.30497 q 0,-2.83689 1.117023,-4.98228 1.134753,-2.16312 3.191493,-3.33334 2.05674,-1.18794 4.751779,-1.18794 2.695038,0 4.751778,1.18794 2.05674,1.17022 3.173763,3.33334 1.134753,2.14539 1.134753,4.98228 v 7.30497 q 0,2.83688 -1.134753,5.00001 -1.117023,2.14539 -3.173763,3.33333 -2.05674,1.17022 -4.751778,1.17022 z m 0,-3.56384 q 1.595746,0 2.801422,-0.70922 1.223405,-0.72695 1.879434,-2.03901 0.67376,-1.32979 0.67376,-3.06738 v -7.5532 q 0,-1.73759 -0.67376,-3.04965 -0.656029,-1.32978 -1.879434,-2.03901 -1.205676,-0.72695 -2.801422,-0.72695 -1.595747,0 -2.819152,0.72695 -1.205676,0.70923 -1.879435,2.03901 -0.656029,1.31206 -0.656029,3.04965 v 7.5532 q 0,1.73759 0.656029,3.06738 0.673759,1.31206 1.879435,2.03901 1.223405,0.70922 2.819152,0.70922 z"
         id="path5657"
         style="font-size:36.3121px;font-family:Bahnschrift;-inkscape-font-specification:'Bahnschrift, Normal';fill:url(#linearGradient13266);fill-opacity:1;stroke-width:1.14405" />
      <path
         d="m 107.46454,165.99867 h 3.38653 v 25.78017 h -3.52837 v -19.30853 l 0.1773,1.13475 -6.34752,14.59221 h -2.517738 l -6.347525,-14.2376 0.177305,-1.48936 v 19.30853 h -3.528373 v -25.78017 h 3.386529 l 7.570931,17.02129 z"
         id="path5659"
         style="font-size:36.3121px;font-family:Bahnschrift;-inkscape-font-specification:'Bahnschrift, Normal';fill:url(#linearGradient13268);fill-opacity:1;stroke-width:1.14405" />
      <path
         d="m 123.90072,165.99867 h 3.08511 l 9.50356,25.78017 h -3.90071 l -7.1454,-20.7979 -7.1454,20.7979 h -3.90071 z m -5.12411,16.68441 h 13.56384 v 3.43972 h -13.56384 z"
         id="path5661"
         style="font-size:36.3121px;font-family:Bahnschrift;-inkscape-font-specification:'Bahnschrift, Normal';fill:url(#linearGradient13270);fill-opacity:1;stroke-width:1.14405" />
      <path
         d="m 143.42203,168.1086 h 3.61703 v 23.67024 h -3.61703 z m -7.28724,-2.10993 h 18.19151 v 3.43972 h -18.19151 z"
         id="path5663"
         style="font-size:36.3121px;font-family:Bahnschrift;-inkscape-font-specification:'Bahnschrift, Normal';fill:url(#linearGradient13272);fill-opacity:1;stroke-width:1.14405" />
      <path
         d="m 161.48943,191.77884 h -3.61702 v -25.78017 h 3.61702 z"
         id="path5665"
         style="font-size:36.3121px;font-family:Bahnschrift;-inkscape-font-specification:'Bahnschrift, Normal';fill:url(#linearGradient13274);fill-opacity:1;stroke-width:1.14405" />
      <path
         d="m 176.40078,192.0448 q -2.69503,0 -4.75177,-1.17022 -2.05674,-1.18794 -3.1915,-3.33333 -1.11702,-2.16313 -1.11702,-5.00001 v -7.30497 q 0,-2.83689 1.11702,-4.98228 1.13476,-2.16312 3.1915,-3.33334 2.05674,-1.18794 4.75177,-1.18794 2.69504,0 4.75178,1.18794 2.05674,1.17022 3.17377,3.33334 1.13475,2.14539 1.13475,4.98228 v 7.30497 q 0,2.83688 -1.13475,5.00001 -1.11703,2.14539 -3.17377,3.33333 -2.05674,1.17022 -4.75178,1.17022 z m 0,-3.56384 q 1.59575,0 2.80143,-0.70922 1.2234,-0.72695 1.87943,-2.03901 0.67376,-1.32979 0.67376,-3.06738 v -7.5532 q 0,-1.73759 -0.67376,-3.04965 -0.65603,-1.32978 -1.87943,-2.03901 -1.20568,-0.72695 -2.80143,-0.72695 -1.59574,0 -2.81915,0.72695 -1.20567,0.70923 -1.87943,2.03901 -0.65603,1.31206 -0.65603,3.04965 v 7.5532 q 0,1.73759 0.65603,3.06738 0.67376,1.31206 1.87943,2.03901 1.22341,0.70922 2.81915,0.70922 z"
         id="path5667"
         style="font-size:36.3121px;font-family:Bahnschrift;-inkscape-font-specification:'Bahnschrift, Normal';fill:url(#linearGradient13276);fill-opacity:1;stroke-width:1.14405" />
      <path
         d="m 190.95755,165.99867 h 3.28015 l 12.60639,19.9291 -0.42553,0.46099 v -20.39009 h 3.58157 v 25.76244 h -3.31561 l -12.57094,-19.62768 0.42553,-0.461 v 20.08868 h -3.58156 z"
         id="path5669"
         style="font-size:36.3121px;font-family:Bahnschrift;-inkscape-font-specification:'Bahnschrift, Normal';fill:url(#linearGradient13278);fill-opacity:1;stroke-width:1.14405" />
    </g>
  </g>
</svg>
